<?xml version="1.0" encoding="UTF-8"?>
<!DOCTYPE svg PUBLIC "-//W3C//DTD SVG 1.1//EN" "http://www.w3.org/Graphics/SVG/1.1/DTD/svg11.dtd">
<svg xmlns="http://www.w3.org/2000/svg" version="1.1" width="998px" height="1002px" style="shape-rendering:geometricPrecision; text-rendering:geometricPrecision; image-rendering:optimizeQuality; fill-rule:evenodd; clip-rule:evenodd" xmlns:xlink="http://www.w3.org/1999/xlink">
<g><path style="opacity:0.92" fill="#111111" d="M 222.5,-0.5 C 228.833,-0.5 235.167,-0.5 241.5,-0.5C 294.559,2.57347 341.226,21.4068 381.5,56C 394.304,67.8037 406.804,79.9704 419,92.5C 422.346,95.8333 424.846,99.6666 426.5,104C 426.377,107.434 424.71,109.601 421.5,110.5C 417.716,107.891 414.049,105.057 410.5,102C 398.138,89.3037 385.471,76.9704 372.5,65C 324.545,24.4628 269.212,7.4628 206.5,14C 181.161,19.1721 157.495,28.5054 135.5,42C 131.964,41.9895 129.63,40.1561 128.5,36.5C 130.541,32.4681 133.541,29.3014 137.5,27C 164.119,12.0699 192.453,2.90328 222.5,-0.5 Z"/></g>
<g><path style="opacity:0.92" fill="#111111" d="M 183.5,62.5 C 222.634,64.3749 257.634,77.2082 288.5,101C 308.271,116.772 328.604,131.772 349.5,146C 358.942,151.702 369.108,155.202 380,156.5C 381.833,156.333 383.667,156.167 385.5,156C 388.328,153.752 391.328,151.752 394.5,150C 398.808,148.826 400.808,150.493 400.5,155C 400.627,160.211 398.293,163.878 393.5,166C 379.704,169.913 366.37,168.58 353.5,162C 346.337,158.253 339.337,154.253 332.5,150C 316.883,138.717 301.549,127.05 286.5,115C 268.326,101.53 248.66,90.53 227.5,82C 197.328,72.944 167.328,73.6107 137.5,84C 117.993,89.9209 99.9927,98.7542 83.5,110.5C 82.9755,116.204 79.9755,118.704 74.5,118C 72.4164,116.499 71.0831,114.499 70.5,112C 71.3339,108.5 72.8339,105.333 75,102.5C 88.2416,91.6253 103.075,83.4586 119.5,78C 140.285,69.9693 161.618,64.8026 183.5,62.5 Z"/></g>
<g><path style="opacity:0.927" fill="#111111" d="M 132.5,108.5 C 138.381,108.557 140.714,111.557 139.5,117.5C 137.055,162.824 136.888,208.157 139,253.5C 144.064,301.799 164.564,341.966 200.5,374C 234.403,400.114 272.07,407.781 313.5,397C 358.662,376.921 385.829,342.421 395,293.5C 399.745,265.651 400.745,237.651 398,209.5C 396.805,199.859 394.972,190.359 392.5,181C 392.125,175.857 394.459,174.191 399.5,176C 403.396,179.616 405.896,184.116 407,189.5C 415.517,236.286 412.517,282.286 398,327.5C 381.093,368.742 351.593,396.575 309.5,411C 242.395,420.642 190.895,396.808 155,339.5C 136.329,308.821 126.662,275.488 126,239.5C 125.065,201.138 125.732,162.805 128,124.5C 127.96,118.648 129.46,113.315 132.5,108.5 Z"/></g>
<g><path style="opacity:0.921" fill="#111111" d="M 82.5,141.5 C 86.0071,140.994 89.1737,141.66 92,143.5C 92.6667,145.167 92.6667,146.833 92,148.5C 90.2344,150.881 89.0678,153.548 88.5,156.5C 93.7582,188.535 102.592,219.535 115,249.5C 118.333,253.5 121.667,257.5 125,261.5C 125.814,263.902 125.647,266.235 124.5,268.5C 120.599,269.268 116.932,268.434 113.5,266C 106.197,259.237 101.03,251.07 98,241.5C 89.4703,216.715 83.137,191.381 79,165.5C 78.3333,159.833 78.3333,154.167 79,148.5C 79.6529,145.861 80.8196,143.527 82.5,141.5 Z"/></g>
<g><path style="opacity:0.929" fill="#111111" d="M 814.5,165.5 C 850.648,159.479 868.482,174.813 868,211.5C 872.181,262.819 872.514,314.152 869,365.5C 866.427,369.809 863.094,370.476 859,367.5C 858.147,362.888 857.647,358.221 857.5,353.5C 822.67,360.583 787.503,365.25 752,367.5C 747.415,367.569 742.915,367.069 738.5,366C 734.92,363.074 734.587,359.74 737.5,356C 738.729,355.219 740.062,354.719 741.5,354.5C 759.92,356.071 778.253,355.237 796.5,352C 812.536,349.55 828.536,346.883 844.5,344C 849.362,343.369 853.862,341.869 858,339.5C 859.01,332.206 859.51,324.873 859.5,317.5C 858.903,286.493 858.07,255.493 857,224.5C 856.575,215.435 855.575,206.435 854,197.5C 852.319,182.502 843.986,175.502 829,176.5C 801.313,179.095 773.647,181.762 746,184.5C 742.12,184.315 738.786,182.981 736,180.5C 735.213,176.277 737.047,174.111 741.5,174C 766.044,171.7 790.377,168.866 814.5,165.5 Z"/></g>
<g><path style="opacity:0.931" fill="#111111" d="M 729.5,185.5 C 731.527,185.338 733.527,185.505 735.5,186C 736.126,186.75 736.626,187.584 737,188.5C 739.852,241.51 742.519,294.51 745,347.5C 740.18,349.601 736.847,348.267 735,343.5C 730.522,295.769 727.688,247.936 726.5,200C 726.538,194.854 727.538,190.021 729.5,185.5 Z"/></g>
<g><path style="opacity:0.926" fill="#111111" d="M 251.5,193.5 C 253.857,193.337 256.19,193.503 258.5,194C 259.227,195.399 259.727,196.899 260,198.5C 260.886,209.5 261.719,220.5 262.5,231.5C 262.064,234.179 261.564,236.845 261,239.5C 258.142,243.405 255.475,243.405 253,239.5C 250.417,224.189 249.917,208.856 251.5,193.5 Z"/></g>
<g><path style="opacity:0.916" fill="#111111" d="M 330.5,199.5 C 333.044,199.104 335.211,199.771 337,201.5C 337.847,215.867 337.513,230.2 336,244.5C 335.229,250.235 332.229,251.901 327,249.5C 326.163,234.137 326.496,218.803 328,203.5C 328.662,202.016 329.496,200.683 330.5,199.5 Z"/></g>
<g><path style="opacity:0.924" fill="#111111" d="M 701.5,237.5 C 711.551,238.449 718.051,243.783 721,253.5C 723.201,264.595 719.367,272.761 709.5,278C 694.695,279.276 689.861,272.776 695,258.5C 696.54,254.581 698.707,251.081 701.5,248C 697.565,244.504 697.565,241.004 701.5,237.5 Z M 708.5,257.5 C 710.344,258.204 710.844,259.537 710,261.5C 708.732,263.717 707.232,265.717 705.5,267.5C 704.842,263.797 705.842,260.463 708.5,257.5 Z"/></g>
<g><path style="opacity:0.917" fill="#111111" d="M 665.5,259.5 C 669.973,259.327 674.14,260.327 678,262.5C 679.929,266.851 678.762,270.351 674.5,273C 668.167,274 661.833,275 655.5,276C 606.995,298.07 562.661,326.403 522.5,361C 489.633,389.533 459.133,420.367 431,453.5C 427.498,458.686 423.998,463.852 420.5,469C 417.141,471.707 413.474,472.54 409.5,471.5C 408.359,469.579 408.192,467.579 409,465.5C 411.416,460.999 414.083,456.666 417,452.5C 458.392,401.104 505.559,355.937 558.5,317C 585.013,298.903 612.68,282.569 641.5,268C 649.307,264.246 657.307,261.412 665.5,259.5 Z"/></g>
<g><path style="opacity:0.915" fill="#111111" d="M 254.5,315.5 C 256.92,315.292 259.253,315.626 261.5,316.5C 263.667,320.167 265.833,323.833 268,327.5C 276.465,334.549 284.298,333.716 291.5,325C 298.864,322.272 301.697,324.772 300,332.5C 291.683,342.542 281.183,345.709 268.5,342C 258.09,336.007 253.424,327.174 254.5,315.5 Z"/></g>
<g><path style="opacity:0.94" fill="#111111" d="M 168.5,388.5 C 170.144,388.286 171.644,388.62 173,389.5C 173.333,395.167 173.667,400.833 174,406.5C 174.442,500.843 175.442,595.177 177,689.5C 177.997,704.818 180.664,719.818 185,734.5C 189.493,739.008 194.993,741.175 201.5,741C 246.794,743.903 292.127,744.903 337.5,744C 346.273,743.755 354.939,742.755 363.5,741C 367.219,739.737 369.719,737.237 371,733.5C 373.158,730.05 375.658,729.717 378.5,732.5C 382.126,743.076 378.459,749.909 367.5,753C 360.875,754.045 354.208,754.711 347.5,755C 312.167,755.667 276.833,755.667 241.5,755C 224.797,754.581 208.13,753.581 191.5,752C 180.823,750.325 174.323,744.158 172,733.5C 166.9,712.47 164.234,691.136 164,669.5C 163.076,577.825 163.409,486.159 165,394.5C 165.424,391.975 166.59,389.975 168.5,388.5 Z"/></g>
<g><path style="opacity:0.935" fill="#111111" d="M 368.5,409.5 C 371.368,409.085 373.535,410.085 375,412.5C 376.045,419.125 376.711,425.792 377,432.5C 380.494,521.153 383.16,609.819 385,698.5C 381.661,701.299 378.661,700.966 376,697.5C 374.876,691.897 374.21,686.231 374,680.5C 370.432,600.533 367.932,520.533 366.5,440.5C 366.524,429.94 367.191,419.606 368.5,409.5 Z"/></g>
<g><path style="opacity:0.928" fill="#111111" d="M 814.5,447.5 C 856.516,447.097 898.516,447.597 940.5,449C 953.608,451.435 960.108,459.268 960,472.5C 960.405,531.755 956.739,590.755 949,649.5C 948.163,654.211 945.663,657.545 941.5,659.5C 938.53,658.53 936.53,656.53 935.5,653.5C 936.634,650.93 937.468,648.264 938,645.5C 944.821,587.691 948.155,529.691 948,471.5C 947.771,468.542 946.604,466.042 944.5,464C 940.877,461.521 936.877,460.188 932.5,460C 854.492,459.533 776.492,460.2 698.5,462C 686.114,462.241 673.781,463.074 661.5,464.5C 661.67,465.822 661.337,466.989 660.5,468C 653.22,469.719 650.053,466.885 651,459.5C 651.685,456.943 653.185,455.109 655.5,454C 659.084,452.927 662.75,452.26 666.5,452C 715.985,450.179 765.318,448.679 814.5,447.5 Z"/></g>
<g><path style="opacity:0.925" fill="#111111" d="M 638.5,469.5 C 642.251,469.082 644.418,470.749 645,474.5C 647.842,525.288 649.676,576.121 650.5,627C 650.424,636.523 649.924,646.023 649,655.5C 645.246,659.809 642.579,659.143 641,653.5C 639.943,645.536 639.277,637.536 639,629.5C 637.697,577.486 636.363,525.486 635,473.5C 635.69,471.65 636.856,470.316 638.5,469.5 Z"/></g>
<g><path style="opacity:0.911" fill="#111111" d="M 121.5,486.5 C 125.516,485.9 129.016,486.9 132,489.5C 132.667,491.5 132.667,493.5 132,495.5C 127.155,496.502 122.655,498.335 118.5,501C 99.5305,518.966 82.3639,538.466 67,559.5C 59.5418,569.635 52.8752,580.301 47,591.5C 44.3981,595.212 40.8981,596.378 36.5,595C 35.1059,594.044 34.4393,592.711 34.5,591C 40.0733,578.43 46.9067,566.596 55,555.5C 70.6724,534.486 87.8391,514.652 106.5,496C 111.16,492.149 116.16,488.982 121.5,486.5 Z"/></g>
<g><path style="opacity:0.917" fill="#111111" d="M -0.5,634.5 C -0.5,631.5 -0.5,628.5 -0.5,625.5C 1.85117,620.322 5.85117,617.155 11.5,616C 12.6694,612.66 15.0027,611.16 18.5,611.5C 34.8538,613.977 39.6872,622.644 33,637.5C 26.0283,644.227 17.8616,646.394 8.5,644C 4.59151,641.594 1.59151,638.428 -0.5,634.5 Z M 18.5,623.5 C 26.0188,625.893 26.3521,629.06 19.5,633C 14.2936,635.73 11.2936,634.23 10.5,628.5C 14.7246,629.269 17.3913,627.602 18.5,623.5 Z"/></g>
<g><path style="opacity:0.943" fill="#111111" d="M 997.5,696.5 C 997.5,714.167 997.5,731.833 997.5,749.5C 996.68,821.018 995.18,892.685 993,964.5C 992.906,975.013 991.573,985.347 989,995.5C 987.668,997.66 986.168,999.66 984.5,1001.5C 982.833,1001.5 981.167,1001.5 979.5,1001.5C 977.757,1000.36 976.757,998.692 976.5,996.5C 980.189,979.049 982.022,961.383 982,943.5C 983.612,877.008 984.779,810.508 985.5,744C 985.478,730.148 984.978,716.314 984,702.5C 983.074,694.577 978.574,690.41 970.5,690C 966.333,689.833 962.167,689.667 958,689.5C 935.491,691.186 912.991,693.019 890.5,695C 799.823,695.791 709.156,695.124 618.5,693C 599.138,692.525 579.805,691.525 560.5,690C 554.629,688.157 552.962,684.657 555.5,679.5C 557.273,678.913 559.106,678.58 561,678.5C 583.099,681.133 605.266,681.967 627.5,681C 629.774,680.53 631.774,679.53 633.5,678C 636.667,677.833 639.833,677.667 643,677.5C 692.439,682.651 741.939,683.484 791.5,680C 822.156,676.668 852.823,673.501 883.5,670.5C 887.919,670.436 892.252,670.936 896.5,672C 897.333,672.833 898.167,673.667 899,674.5C 898.934,677.578 899.101,680.578 899.5,683.5C 919.885,680.328 940.385,677.994 961,676.5C 977.152,676.318 989.319,682.985 997.5,696.5 Z"/></g>
<g><path style="opacity:0.934" fill="#111111" d="M 530.5,701.5 C 535.366,700.679 538.199,702.679 539,707.5C 542.774,729.676 545.107,752.009 546,774.5C 549.317,842.797 550.65,911.131 550,979.5C 546.929,981.768 543.596,982.101 540,980.5C 538.787,925.497 537.453,870.497 536,815.5C 535.12,780.419 532.953,745.419 529.5,710.5C 529.544,707.415 529.878,704.415 530.5,701.5 Z"/></g>
<g><path style="opacity:0.929" fill="#111111" d="M 219.5,771.5 C 221.792,771.244 223.959,771.577 226,772.5C 227.139,778.436 227.805,784.436 228,790.5C 230.458,843.161 230.792,895.827 229,948.5C 228.882,959.586 224.048,967.752 214.5,973C 191.407,979.365 168.573,986.531 146,994.5C 141.27,992.912 140.27,989.912 143,985.5C 151.435,979.868 160.602,975.701 170.5,973C 182.385,969.261 194.385,965.928 206.5,963C 211.867,960.968 215.033,957.135 216,951.5C 216.93,946.201 217.597,940.867 218,935.5C 218.582,889.824 218.082,844.157 216.5,798.5C 216.667,792.167 216.833,785.833 217,779.5C 217.097,776.518 217.93,773.851 219.5,771.5 Z"/></g>
<g><path style="opacity:0.933" fill="#111111" d="M 340.5,787.5 C 342.262,787.357 343.929,787.691 345.5,788.5C 345.833,792 346.167,795.5 346.5,799C 347.274,843.166 348.108,887.333 349,931.5C 349.188,939.278 350.188,946.945 352,954.5C 354.415,960.583 358.582,965.083 364.5,968C 379.706,976.292 395.373,983.626 411.5,990C 414.311,993.294 413.978,996.294 410.5,999C 406.406,999.767 402.406,999.434 398.5,998C 382.434,991.134 366.767,983.467 351.5,975C 345.624,970.12 341.791,963.953 340,956.5C 338.049,948.292 337.049,939.959 337,931.5C 336.085,884.485 336.419,837.485 338,790.5C 338.698,789.309 339.531,788.309 340.5,787.5 Z"/></g>
<g><path style="opacity:0.942" fill="#111111" d="M 575.5,960.5 C 580.777,959.931 585.777,960.765 590.5,963C 709.153,965.356 827.819,966.356 946.5,966C 955.524,966.118 964.358,964.951 973,962.5C 976.738,962.738 978.571,964.738 978.5,968.5C 978.55,971.574 977.217,973.741 974.5,975C 969.547,975.995 964.547,976.662 959.5,977C 844.83,977.801 730.163,977.468 615.5,976C 600.092,975.94 584.759,974.94 569.5,973C 565.633,969.751 565.633,966.418 569.5,963C 571.611,962.155 573.611,961.322 575.5,960.5 Z"/></g>
</svg>
