<?xml version="1.0" encoding="UTF-8"?>
<!DOCTYPE svg PUBLIC "-//W3C//DTD SVG 1.1//EN" "http://www.w3.org/Graphics/SVG/1.1/DTD/svg11.dtd">
<svg xmlns="http://www.w3.org/2000/svg" version="1.1" width="869px" height="1131px" style="shape-rendering:geometricPrecision; text-rendering:geometricPrecision; image-rendering:optimizeQuality; fill-rule:evenodd; clip-rule:evenodd" xmlns:xlink="http://www.w3.org/1999/xlink">
<g><path style="opacity:0.924" fill="#111111" d="M 101.5,21.5 C 106.39,20.7841 110.556,22.1174 114,25.5C 119.863,40.0882 125.53,54.7548 131,69.5C 132.851,75.0117 136.684,77.345 142.5,76.5C 153.467,74.9196 164.467,74.0863 175.5,74C 181.393,77.8209 182.893,82.9875 180,89.5C 170.667,101.5 161.333,113.5 152,125.5C 151.333,127.833 151.333,130.167 152,132.5C 157.571,148.546 162.738,164.713 167.5,181C 165.388,189.723 160.054,192.723 151.5,190C 138.167,180.667 124.833,171.333 111.5,162C 105.911,158.466 100.578,158.799 95.5,163C 85.5,171 75.5,179 65.5,187C 55.6505,188.477 50.8172,184.31 51,174.5C 55.5349,161.229 59.8682,147.895 64,134.5C 65.4659,129.265 63.9659,125.099 59.5,122C 47.8333,113.667 36.1667,105.333 24.5,97C 18.9515,90.7078 19.2849,84.7078 25.5,79C 26.5,78.6667 27.5,78.3333 28.5,78C 45.9242,77.9727 63.2576,77.3061 80.5,76C 82.8936,74.0478 84.3936,71.5478 85,68.5C 88.5109,54.7898 92.1775,41.1231 96,27.5C 97.3597,24.9774 99.193,22.9774 101.5,21.5 Z M 105.5,37.5 C 110.796,49.5364 115.629,61.8698 120,74.5C 124.132,83.8167 131.299,88.4834 141.5,88.5C 150.225,87.6577 158.891,86.8244 167.5,86C 159.667,95.8333 151.833,105.667 144,115.5C 140.148,120.91 138.815,126.91 140,133.5C 144.774,147.812 149.107,162.145 153,176.5C 139.065,166.117 124.565,156.617 109.5,148C 103.114,146.791 97.1141,147.791 91.5,151C 82.575,158.047 73.7417,165.214 65,172.5C 68.0245,160.418 71.6912,148.418 76,136.5C 77.9193,126.923 75.086,119.09 67.5,113C 56.8333,105.333 46.1667,97.6667 35.5,90C 50.5,89.6667 65.5,89.3333 80.5,89C 87.1807,86.9867 92.014,82.82 95,76.5C 98.66,63.5253 102.16,50.5253 105.5,37.5 Z"/></g>
<g><path style="opacity:0.926" fill="#111111" d="M 669.5,122.5 C 685.266,122.312 700.932,123.479 716.5,126C 738.803,130.826 761.136,135.493 783.5,140C 787.213,141.691 788.379,144.525 787,148.5C 782.391,150.51 777.558,151.01 772.5,150C 751.966,145.033 731.299,140.7 710.5,137C 678.948,132.58 648.281,135.913 618.5,147C 596.288,155.162 580.455,169.995 571,191.5C 569.687,195.42 568.687,199.42 568,203.5C 566.846,220.81 566.179,238.143 566,255.5C 564.727,259.102 562.227,260.268 558.5,259C 557.299,258.097 556.465,256.931 556,255.5C 543.491,185.642 571.658,142.808 640.5,127C 650.273,125.241 659.939,123.741 669.5,122.5 Z"/></g>
<g><path style="opacity:0.929" fill="#111111" d="M 766.5,178.5 C 801.204,177.014 832.204,186.847 859.5,208C 863.184,211.517 865.851,215.684 867.5,220.5C 866.502,227.375 862.835,229.875 856.5,228C 855.077,224.491 853.577,220.991 852,217.5C 844.898,210.696 836.732,205.53 827.5,202C 802.339,190.834 776.339,188.167 749.5,194C 723.166,201.669 698.832,213.335 676.5,229C 710.053,232.977 743.053,239.644 775.5,249C 780.613,250.723 785.613,252.723 790.5,255C 793.167,258 793.167,261 790.5,264C 787.134,264.33 783.801,263.997 780.5,263C 742.449,250.492 703.449,243.492 663.5,242C 660.048,242.892 657.048,244.558 654.5,247C 639.425,261.412 623.758,275.079 607.5,288C 631.848,288.667 656.181,289.667 680.5,291C 714.08,293.581 746.414,301.248 777.5,314C 781.074,317.524 781.407,321.358 778.5,325.5C 775.897,326.562 773.23,326.728 770.5,326C 765.562,321.697 759.896,318.697 753.5,317C 728.369,309.423 702.702,304.756 676.5,303C 649.826,302.099 623.16,301.099 596.5,300C 594.871,299.415 593.371,298.581 592,297.5C 581.687,302.413 570.853,304.247 559.5,303C 552.81,300.976 548.476,296.643 546.5,290C 546.927,284.911 549.594,283.244 554.5,285C 558.647,290.16 563.981,292.16 570.5,291C 582.213,288.142 592.88,283.142 602.5,276C 613.961,266.875 625.127,257.375 636,247.5C 637.076,245.933 637.909,244.266 638.5,242.5C 633.826,236.376 635.159,231.876 642.5,229C 647.229,228.727 651.896,228.061 656.5,227C 667.167,220 677.833,213 688.5,206C 712.817,191.73 738.817,182.563 766.5,178.5 Z"/></g>
<g><path style="opacity:0.928" fill="#111111" d="M 811.5,223.5 C 814.482,223.104 817.149,223.771 819.5,225.5C 820.951,229.696 821.618,234.029 821.5,238.5C 817.442,299.514 806.276,359.181 788,417.5C 770.945,461.554 741.111,493.721 698.5,514C 678.704,520.505 658.704,521.172 638.5,516C 590.641,499.474 558.474,467.307 542,419.5C 533.461,386.985 530.128,353.985 532,320.5C 532.557,316.825 533.89,313.492 536,310.5C 539.51,307.136 543.177,306.803 547,309.5C 545.063,318.408 543.896,327.575 543.5,337C 543.913,356.635 545.747,376.135 549,395.5C 558.608,444.099 585.774,478.932 630.5,500C 656.843,511.028 682.509,509.695 707.5,496C 744.122,472.702 768.622,440.202 781,398.5C 797.24,341.051 807.407,282.718 811.5,223.5 Z"/></g>
<g><path style="opacity:0.922" fill="#111111" d="M 851.5,250.5 C 858.775,249.775 862.109,253.109 861.5,260.5C 857.847,294.263 850.681,327.263 840,359.5C 837.389,367.898 832.889,375.064 826.5,381C 821.354,383.312 816.521,382.812 812,379.5C 809.709,376.165 810.209,373.332 813.5,371C 818.019,370.481 821.519,368.314 824,364.5C 832.496,344.522 838.829,323.856 843,302.5C 846.818,285.26 849.651,267.927 851.5,250.5 Z"/></g>
<g><path style="opacity:0.907" fill="#111111" d="M 701.5,259.5 C 712.45,259.982 722.784,262.815 732.5,268C 735.658,273.183 734.158,276.017 728,276.5C 718.419,275.084 709.419,272.084 701,267.5C 700.278,264.739 700.445,262.073 701.5,259.5 Z"/></g>
<g><path style="opacity:0.873" fill="#111111" d="M 675.5,260.5 C 680.532,260.214 685.032,261.548 689,264.5C 690.674,270.324 688.507,272.991 682.5,272.5C 677.036,273.108 673.703,270.775 672.5,265.5C 672.757,263.308 673.757,261.641 675.5,260.5 Z"/></g>
<g><path style="opacity:0.923" fill="#111111" d="M 214.5,263.5 C 222.154,262.243 227.321,265.243 230,272.5C 230.646,279.024 231.48,285.524 232.5,292C 230.861,304.749 224.195,308.082 212.5,302C 201.253,292.108 199.753,280.941 208,268.5C 209.965,266.45 212.132,264.783 214.5,263.5 Z M 215.5,279.5 C 217.335,280.122 218.502,281.456 219,283.5C 222.597,294.444 221.263,295.11 215,285.5C 214.322,283.402 214.489,281.402 215.5,279.5 Z"/></g>
<g><path style="opacity:0.906" fill="#111111" d="M 744.5,270.5 C 756.46,271.657 767.793,274.99 778.5,280.5C 781.812,283.844 782.146,287.344 779.5,291C 777.5,291.667 775.5,291.667 773.5,291C 763.528,286.589 753.195,283.256 742.5,281C 741.106,280.044 740.439,278.711 740.5,277C 740.845,274.169 742.178,272.003 744.5,270.5 Z"/></g>
<g><path style="opacity:0.915" fill="#111111" d="M 253.5,305.5 C 256.579,305.26 259.579,305.593 262.5,306.5C 263.975,309.341 265.141,312.341 266,315.5C 357.236,399.733 446.903,485.733 535,573.5C 537.706,578.366 536.373,581.366 531,582.5C 528.181,582.007 525.681,580.84 523.5,579C 436.712,493.541 348.712,409.541 259.5,327C 255.618,322.786 252.118,318.286 249,313.5C 248.172,309.5 249.672,306.834 253.5,305.5 Z"/></g>
<g><path style="opacity:0.909" fill="#111111" d="M 602.5,336.5 C 607.223,335.553 611.056,336.886 614,340.5C 617.842,346.505 621.009,352.838 623.5,359.5C 622.995,362.188 621.662,364.355 619.5,366C 612.191,370.667 604.358,372.834 596,372.5C 595.564,363.931 599.73,359.431 608.5,359C 609.022,358.439 609.355,357.772 609.5,357C 607.628,352.757 605.128,348.923 602,345.5C 599.916,342.267 600.082,339.267 602.5,336.5 Z"/></g>
<g><path style="opacity:0.901" fill="#111111" d="M 700.5,360.5 C 707.09,360.189 713.59,360.522 720,361.5C 720.893,364.916 720.393,368.083 718.5,371C 711.201,372.02 703.868,372.687 696.5,373C 701.711,378.542 706.544,384.375 711,390.5C 713.811,394.956 712.811,397.956 708,399.5C 695.464,391.92 686.298,381.42 680.5,368C 680.89,365.541 682.224,363.874 684.5,363C 689.972,362.133 695.306,361.3 700.5,360.5 Z"/></g>
<g><path style="opacity:0.904" fill="#111111" d="M 617.5,428.5 C 619.527,428.338 621.527,428.505 623.5,429C 629.18,437.057 636.847,441.057 646.5,441C 648.047,438.213 650.047,435.88 652.5,434C 659.833,433.003 662.666,436.17 661,443.5C 659.181,448.336 655.681,451.169 650.5,452C 636.856,454.123 625.69,449.956 617,439.5C 614.965,435.719 615.132,432.052 617.5,428.5 Z"/></g>
<g><path style="opacity:0.934" fill="#111111" d="M 546.5,502.5 C 550.68,502.667 553.513,504.667 555,508.5C 555.667,520.167 555.667,531.833 555,543.5C 545.285,642.602 534.618,741.602 523,840.5C 522.64,842.421 521.806,844.088 520.5,845.5C 521.729,846.281 523.062,846.781 524.5,847C 571.846,851.868 619.18,856.868 666.5,862C 682.149,863.322 697.815,863.655 713.5,863C 722.533,863.632 727.033,859.465 727,850.5C 729.186,745.166 731.353,639.833 733.5,534.5C 736.881,534.46 740.214,534.793 743.5,535.5C 743.402,639.855 741.902,744.189 739,848.5C 740.5,858.006 737.667,865.84 730.5,872C 728.608,872.973 726.608,873.64 724.5,874C 704.5,874.667 684.5,874.667 664.5,874C 616.241,868.607 567.908,863.941 519.5,860C 516.898,859.117 514.731,857.617 513,855.5C 512.094,850.326 510.594,845.326 508.5,840.5C 512.303,826.087 514.803,811.421 516,796.5C 526.087,706.387 535.587,616.221 544.5,526C 544.333,522.5 544.167,519 544,515.5C 540.316,510.266 541.15,505.933 546.5,502.5 Z"/></g>
<g><path style="opacity:0.917" fill="#111111" d="M 868.5,670.5 C 868.5,672.833 868.5,675.167 868.5,677.5C 867.023,679.807 865.023,681.64 862.5,683C 847.659,691.255 832.659,699.255 817.5,707C 811.432,709.745 805.098,711.578 798.5,712.5C 791.158,712.365 789.158,709.199 792.5,703C 813.663,694.419 833.996,684.252 853.5,672.5C 848.316,666.483 842.65,660.983 836.5,656C 816.167,643.667 795.833,631.333 775.5,619C 773.957,617.122 772.124,615.622 770,614.5C 765.061,606.05 767.228,602.884 776.5,605C 794.501,617.338 813.168,628.671 832.5,639C 846.38,647.426 858.38,657.926 868.5,670.5 Z"/></g>
<g><path style="opacity:0.929" fill="#111111" d="M 759.5,704.5 C 776.753,706.009 784.253,715.342 782,732.5C 779.24,740.585 773.74,743.418 765.5,741C 755.991,733.486 752.158,723.653 754,711.5C 754.967,708.379 756.8,706.046 759.5,704.5 Z M 765.5,719.5 C 770.863,720.893 772.53,724.226 770.5,729.5C 767.762,726.691 766.096,723.358 765.5,719.5 Z"/></g>
<g><path style="opacity:0.927" fill="#111111" d="M 486.5,1130.5 C 483.167,1130.5 479.833,1130.5 476.5,1130.5C 472.024,1127.49 471.358,1123.66 474.5,1119C 499.653,1113.5 523.653,1104.84 546.5,1093C 549.106,1091.06 550.939,1088.56 552,1085.5C 553.812,1077.94 554.812,1070.28 555,1062.5C 555.964,1002.46 557.964,942.463 561,882.5C 564.202,878.614 567.535,878.614 571,882.5C 572.028,885.91 572.528,889.41 572.5,893C 571.432,908.487 570.599,923.987 570,939.5C 569.662,977.173 568.995,1014.84 568,1052.5C 567.787,1064.96 566.454,1077.3 564,1089.5C 561.311,1096.86 556.478,1102.36 549.5,1106C 528.98,1115.67 507.98,1123.84 486.5,1130.5 Z"/></g>
<g><path style="opacity:0.929" fill="#111111" d="M 668.5,888.5 C 671.365,888.055 673.865,888.722 676,890.5C 675.881,935.18 674.881,979.846 673,1024.5C 672.333,1042.17 672.333,1059.83 673,1077.5C 675.264,1080.43 678.098,1082.6 681.5,1084C 706.258,1092.46 729.425,1103.96 751,1118.5C 753.209,1122.21 752.376,1125.04 748.5,1127C 745.743,1127.58 743.077,1127.25 740.5,1126C 730.157,1119.49 719.49,1113.49 708.5,1108C 694.672,1102.72 681.005,1097.06 667.5,1091C 664.598,1088.76 662.431,1085.93 661,1082.5C 660.852,1021.79 662.519,961.122 666,900.5C 666.074,896.278 666.908,892.278 668.5,888.5 Z"/></g>
</svg>
