<?xml version="1.0" encoding="UTF-8"?>
<!DOCTYPE svg PUBLIC "-//W3C//DTD SVG 1.1//EN" "http://www.w3.org/Graphics/SVG/1.1/DTD/svg11.dtd">
<svg xmlns="http://www.w3.org/2000/svg" version="1.1" width="1101px" height="1118px" style="shape-rendering:geometricPrecision; text-rendering:geometricPrecision; image-rendering:optimizeQuality; fill-rule:evenodd; clip-rule:evenodd" xmlns:xlink="http://www.w3.org/1999/xlink">
<g><path style="opacity:0.927" fill="#000000" d="M 482.5,-0.5 C 483.833,-0.5 485.167,-0.5 486.5,-0.5C 489.63,3.77996 493.964,5.77996 499.5,5.5C 500.176,18.9087 501.676,32.2421 504,45.5C 518.385,115.476 530.718,185.809 541,256.5C 541.669,261.513 542.003,266.513 542,271.5C 537.458,277.103 533.792,276.77 531,270.5C 529.539,264.194 528.206,257.861 527,251.5C 514.256,174.449 501.256,97.4492 488,20.5C 487.697,18.1116 486.863,15.9449 485.5,14C 445.535,18.2553 405.535,22.5886 365.5,27C 302.469,31.9767 239.469,37.31 176.5,43C 126.693,48.4342 77.0263,54.9342 27.5,62.5C 17.7659,62.038 16.0993,58.2046 22.5,51C 85.8079,39.9615 149.475,31.6282 213.5,26C 303.649,20.5176 393.316,11.6843 482.5,-0.5 Z"/></g>
<g><path style="opacity:0.93" fill="#000000" d="M 446.5,61.5 C 456.253,59.6959 464.42,62.3626 471,69.5C 476.663,79.8217 480.329,90.8217 482,102.5C 488.268,138.972 490.601,175.638 489,212.5C 485.229,219.947 479.396,224.78 471.5,227C 445.137,232.005 418.637,234.505 392,234.5C 386.233,182.596 379.733,130.762 372.5,79C 373.676,73.0787 377.009,71.412 382.5,74C 383.893,75.1711 384.727,76.6711 385,78.5C 390.25,113.506 395.417,148.506 400.5,183.5C 413.154,184.666 425.82,184.833 438.5,184C 442.219,183.612 445.886,182.945 449.5,182C 454.197,179.732 459.031,177.898 464,176.5C 469.504,177.867 470.837,181.2 468,186.5C 463.144,191.236 457.311,194.069 450.5,195C 433.921,197.264 417.254,198.097 400.5,197.5C 400.019,204.748 401.019,211.748 403.5,218.5C 406.212,219.228 408.879,220.061 411.5,221C 432.065,219.681 452.398,216.681 472.5,212C 473.667,210.833 474.833,209.667 476,208.5C 477.568,200.579 477.901,192.579 477,184.5C 475.782,161.431 473.782,138.431 471,115.5C 469.281,101.01 464.781,87.5105 457.5,75C 455.667,74.8333 453.833,74.6667 452,74.5C 432.356,76.5796 412.856,79.5796 393.5,83.5C 391.307,83.6738 389.473,83.0071 388,81.5C 387.216,78.2397 387.383,75.0731 388.5,72C 407.866,67.9409 427.199,64.4409 446.5,61.5 Z M 428.5,103.5 C 432.49,103.999 436.49,104.499 440.5,105C 442.478,107.497 442.978,110.331 442,113.5C 438.664,116.169 434.831,117.669 430.5,118C 425.166,119.318 419.833,119.484 414.5,118.5C 412.893,114.085 413.226,109.918 415.5,106C 419.965,105.126 424.298,104.293 428.5,103.5 Z M 445.5,152.5 C 447.199,152.34 448.866,152.506 450.5,153C 451.451,153.718 451.617,154.551 451,155.5C 447.841,159.155 444.008,161.322 439.5,162C 437.256,156.086 439.256,152.92 445.5,152.5 Z"/></g>
<g><path style="opacity:0.923" fill="#000000" d="M 832.5,71.5 C 857.604,70.7102 882.604,71.8768 907.5,75C 935.579,80.2055 959.912,92.5388 980.5,112C 996.88,127.365 1009.71,145.198 1019,165.5C 1021.99,173.956 1020.49,181.456 1014.5,188C 1010.94,190.154 1007.77,189.654 1005,186.5C 1005.33,180.833 1005.67,175.167 1006,169.5C 980.415,116.774 938.249,88.6068 879.5,85C 836.093,82.6296 793.76,88.2962 752.5,102C 747.077,104.46 741.91,107.293 737,110.5C 733.325,109.689 731.491,107.356 731.5,103.5C 731.967,101.432 732.634,99.4317 733.5,97.5C 737.053,94.5562 741.053,92.3896 745.5,91C 773.914,81.2206 802.914,74.7206 832.5,71.5 Z"/></g>
<g><path style="opacity:0.926" fill="#000000" d="M 306.5,72.5 C 314.486,71.8674 322.152,73.0341 329.5,76C 331.81,77.6374 333.31,79.804 334,82.5C 340.111,125.556 345.278,168.722 349.5,212C 348.692,217.205 345.692,218.872 340.5,217C 339.107,215.829 338.273,214.329 338,212.5C 332.345,175.258 327.345,137.924 323,100.5C 322.684,95.5519 321.184,91.0519 318.5,87C 307.108,86.4721 295.775,87.1387 284.5,89C 252.112,94.0092 219.778,99.3425 187.5,105C 158.018,109.915 128.351,112.249 98.5,112C 96.3792,108.826 96.0458,105.493 97.5,102C 121.52,99.9215 145.52,97.5881 169.5,95C 215.101,86.1773 260.767,78.6773 306.5,72.5 Z"/></g>
<g><path style="opacity:0.928" fill="#000000" d="M 332.5,1117.5 C 331.167,1117.5 329.833,1117.5 328.5,1117.5C 325.039,1115.58 323.372,1112.58 323.5,1108.5C 315.124,1110.72 306.624,1112.38 298,1113.5C 287.352,1114.55 284.185,1110.38 288.5,1101C 300.845,1101.47 312.345,1098.63 323,1092.5C 321.676,964.175 321.01,835.842 321,707.5C 321.273,705.899 321.773,704.399 322.5,703C 310.037,704.76 297.703,707.427 285.5,711C 281.843,711.655 280.009,713.822 280,717.5C 281.458,829.49 281.792,941.49 281,1053.5C 280.667,1069.5 280.333,1085.5 280,1101.5C 276.996,1105 273.663,1105.33 270,1102.5C 269.667,1098.17 269.333,1093.83 269,1089.5C 268.34,964.806 267.507,840.139 266.5,715.5C 217.713,725.02 168.713,733.353 119.5,740.5C 115.066,738.365 113.899,735.032 116,730.5C 161.148,721.804 206.314,712.971 251.5,704C 283.621,697.176 315.621,689.843 347.5,682C 348.833,681.333 350.167,680.667 351.5,680C 349.014,676.863 347.181,673.363 346,669.5C 343.667,661.833 341.333,654.167 339,646.5C 336.898,639.231 332.065,635.565 324.5,635.5C 316.932,636.392 309.598,638.225 302.5,641C 286.434,647.866 270.767,655.533 255.5,664C 240.889,671.204 225.555,676.204 209.5,679C 183.705,682.528 166.538,672.028 158,647.5C 156.112,640.97 155.279,634.304 155.5,627.5C 156.943,610.677 158.277,593.844 159.5,577C 159.687,571.834 159.02,566.834 157.5,562C 154.261,562.446 151.261,563.779 148.5,566C 137.455,575.381 126.121,584.381 114.5,593C 111.833,594.333 109.167,595.667 106.5,597C 99.599,598.711 92.7657,600.545 86,602.5C 90.7097,649.814 95.7097,697.147 101,744.5C 100.67,749.512 102.67,753.179 107,755.5C 83.1557,872.216 55.8224,988.216 25,1103.5C 23.9914,1104.66 22.6581,1105.32 21,1105.5C 18.1834,1104.97 15.35,1104.64 12.5,1104.5C 13.7525,1095.07 15.5859,1085.74 18,1076.5C 35.8241,1004.87 53.4907,933.204 71,861.5C 78.9354,827.823 86.102,793.99 92.5,760C 90.3707,753.694 88.8707,747.194 88,740.5C 84.6991,708.458 81.0324,676.458 77,644.5C 67.6272,584.89 58.6272,525.224 50,465.5C 33.9393,341.582 17.106,217.916 -0.5,94.5C -0.5,89.8333 -0.5,85.1667 -0.5,80.5C 5.29921,77.0665 9.13255,78.7331 11,85.5C 30.5565,216.285 48.5565,347.285 65,478.5C 65.3024,483.463 67.8024,486.629 72.5,488C 103.626,490.625 130.126,480.791 152,458.5C 160.667,445.833 169.333,433.167 178,420.5C 184.871,411.962 192.704,404.462 201.5,398C 220.944,385.353 240.944,384.353 261.5,395C 278.075,407.042 284.242,423.209 280,443.5C 279.333,446.833 278.667,450.167 278,453.5C 271.264,476.042 263.93,498.376 256,520.5C 251.02,535.644 250.02,550.977 253,566.5C 254.549,574.101 258.049,580.601 263.5,586C 265.659,586.912 267.825,587.745 270,588.5C 278.625,587.626 286.791,585.126 294.5,581C 306.853,572.655 318.02,562.822 328,551.5C 338,538.833 348,526.167 358,513.5C 367.645,501.84 379.479,493.34 393.5,488C 411.556,483.519 422.222,490.352 425.5,508.5C 421.906,528.802 418.573,549.135 415.5,569.5C 414.542,583.129 420.542,591.629 433.5,595C 445.756,597.467 458.089,598.133 470.5,597C 481.513,599.011 488.347,605.511 491,616.5C 493.586,628.436 495.752,640.436 497.5,652.5C 516.068,649.442 534.401,645.275 552.5,640C 560.752,631.97 567.085,633.303 571.5,644C 570.917,646.915 569.25,648.915 566.5,650C 546.173,656.582 525.506,661.915 504.5,666C 444.036,677.359 383.703,689.359 323.5,702C 329.273,703.016 332.106,706.516 332,712.5C 332.972,836.172 334.472,959.839 336.5,1083.5C 336.53,1093.86 336.03,1104.2 335,1114.5C 333.955,1115.37 333.122,1116.37 332.5,1117.5 Z M 227.5,401.5 C 251.01,399.067 264.677,409.4 268.5,432.5C 267.636,439.958 266.136,447.291 264,454.5C 257.136,473.425 250.469,492.425 244,511.5C 238.455,529.52 236.788,547.853 239,566.5C 241.271,581.901 249.105,593.401 262.5,601C 272.069,602.73 281.403,601.73 290.5,598C 308.538,589.647 324.038,577.813 337,562.5C 347,549.833 357,537.167 367,524.5C 373.946,516.548 381.779,509.714 390.5,504C 400.821,496.61 408.154,498.776 412.5,510.5C 409.016,526.086 405.849,541.753 403,557.5C 402.333,565.833 402.333,574.167 403,582.5C 407.066,599.469 417.899,608.303 435.5,609C 444.833,609.333 454.167,609.667 463.5,610C 468.861,610.104 473.027,612.271 476,616.5C 480.837,629.685 482.67,643.185 481.5,657C 440.511,664.732 399.511,672.066 358.5,679C 360.767,674.668 360.934,670.168 359,665.5C 356.667,654.836 353.334,644.502 349,634.5C 340.242,622.762 328.742,618.929 314.5,623C 309.106,624.465 303.772,626.131 298.5,628C 280.046,636.394 261.712,645.06 243.5,654C 229.971,660.399 215.804,664.566 201,666.5C 184.93,665.463 174.93,657.13 171,641.5C 169.995,635.38 169.495,629.213 169.5,623C 170.982,602.185 171.482,581.352 171,560.5C 167.846,548.567 160.679,545.067 149.5,550C 135.14,560.181 121.14,570.848 107.5,582C 100.304,586.889 92.4705,588.723 84,587.5C 82.115,586.008 81.115,584.008 81,581.5C 76.5587,555.244 72.7254,528.911 69.5,502.5C 110.429,504.774 143.596,490.107 169,458.5C 179.76,436.821 195.26,419.321 215.5,406C 219.432,403.972 223.432,402.472 227.5,401.5 Z"/></g>
<g><path style="opacity:0.921" fill="#000000" d="M 423.5,91.5 C 429.509,91.3338 435.509,91.5005 441.5,92C 449.574,92.4104 454.074,96.5771 455,104.5C 456.642,114.37 453.475,122.203 445.5,128C 432.635,131.654 419.635,132.654 406.5,131C 403.862,127.303 402.362,123.136 402,118.5C 400.725,112.207 400.392,105.874 401,99.5C 402.109,97.1853 403.943,95.6853 406.5,95C 412.224,93.4322 417.89,92.2655 423.5,91.5 Z M 428.5,103.5 C 424.298,104.293 419.965,105.126 415.5,106C 413.226,109.918 412.893,114.085 414.5,118.5C 419.833,119.484 425.166,119.318 430.5,118C 434.831,117.669 438.664,116.169 442,113.5C 442.978,110.331 442.478,107.497 440.5,105C 436.49,104.499 432.49,103.999 428.5,103.5 Z"/></g>
<g><path style="opacity:0.919" fill="#000000" d="M 81.5,113.5 C 83.8568,113.337 86.1902,113.503 88.5,114C 94.2716,147.127 100.105,180.294 106,213.5C 107.642,222.774 108.808,232.107 109.5,241.5C 110.585,249.085 107.585,252.085 100.5,250.5C 91.497,208.316 84.1636,165.816 78.5,123C 78.0043,119.203 79.0043,116.036 81.5,113.5 Z"/></g>
<g><path style="opacity:0.913" fill="#000000" d="M 263.5,115.5 C 288.37,112.538 300.203,123.538 299,148.5C 297.847,155.182 294.18,157.182 288,154.5C 286.406,147.16 284.739,139.827 283,132.5C 279.225,129.106 274.725,127.44 269.5,127.5C 246.202,130.16 223.202,134.327 200.5,140C 201.938,146.247 203.772,152.414 206,158.5C 208.075,159.134 210.241,159.468 212.5,159.5C 238.483,158.001 264.483,157.501 290.5,158C 294.18,160.444 294.514,163.444 291.5,167C 289.608,167.973 287.608,168.64 285.5,169C 257.511,170.351 229.511,170.684 201.5,170C 191.652,159.457 187.152,146.957 188,132.5C 193.462,128.452 199.629,125.952 206.5,125C 225.468,120.728 244.468,117.561 263.5,115.5 Z"/></g>
<g><path style="opacity:0.926" fill="#000000" d="M 779.5,125.5 C 797.863,125.149 816.196,125.649 834.5,127C 856.421,130.859 876.421,139.192 894.5,152C 914.203,170.038 934.203,187.705 954.5,205C 971.429,217.755 990.429,225.422 1011.5,228C 1014.41,235.102 1012.08,239.435 1004.5,241C 1000.79,241.439 997.122,241.106 993.5,240C 974.003,232.921 956.003,223.255 939.5,211C 920.5,194 901.5,177 882.5,160C 857.41,143.864 829.91,136.697 800,138.5C 764.14,137.84 730.64,146.34 699.5,164C 690.774,166.036 687.94,162.87 691,154.5C 706.325,144.757 722.825,137.591 740.5,133C 753.41,129.25 766.41,126.75 779.5,125.5 Z"/></g>
<g><path style="opacity:0.92" fill="#000000" d="M 142.5,136.5 C 151.785,135.194 159.952,137.527 167,143.5C 174.43,163.292 179.93,183.626 183.5,204.5C 183.373,207.387 182.373,209.887 180.5,212C 176.719,213.827 172.719,214.827 168.5,215C 159.5,215.667 150.5,215.667 141.5,215C 136.177,214.979 133.677,212.479 134,207.5C 134.5,206.333 135.333,205.5 136.5,205C 147.158,203.921 157.824,203.088 168.5,202.5C 166.831,184.824 162.498,167.824 155.5,151.5C 154.975,150.808 154.308,150.308 153.5,150C 144.797,149.298 136.13,149.632 127.5,151C 126.376,151.839 125.709,153.006 125.5,154.5C 127.756,173.973 129.756,193.473 131.5,213C 132.798,220.516 129.798,223.183 122.5,221C 121.299,220.097 120.465,218.931 120,217.5C 118.057,196.407 115.391,175.407 112,154.5C 111.19,149.743 111.524,145.076 113,140.5C 113.75,139.874 114.584,139.374 115.5,139C 124.635,138.024 133.635,137.191 142.5,136.5 Z"/></g>
<g><path style="opacity:0.928" fill="#000000" d="M 442.5,140.5 C 456.466,137.991 463.633,143.657 464,157.5C 459.112,170.031 449.945,175.531 436.5,174C 432.388,172.221 429.222,169.388 427,165.5C 426.333,160.167 426.333,154.833 427,149.5C 427.785,147.714 428.951,146.214 430.5,145C 434.571,143.37 438.571,141.87 442.5,140.5 Z M 445.5,152.5 C 439.256,152.92 437.256,156.086 439.5,162C 444.008,161.322 447.841,159.155 451,155.5C 451.617,154.551 451.451,153.718 450.5,153C 448.866,152.506 447.199,152.34 445.5,152.5 Z"/></g>
<g><path style="opacity:0.928" fill="#000000" d="M 750.5,173.5 C 755.067,173.209 757.734,175.209 758.5,179.5C 757.16,183.372 756.326,187.372 756,191.5C 753.893,236.596 757.226,281.263 766,325.5C 770.419,346.424 777.419,366.424 787,385.5C 829.531,452.837 883.031,463.004 947.5,416C 972.45,396.039 990.95,371.206 1003,341.5C 1011.67,319.303 1016.84,296.303 1018.5,272.5C 1018.07,267.795 1016.57,263.462 1014,259.5C 1013.18,250.654 1016.68,248.487 1024.5,253C 1027.11,254.938 1028.94,257.438 1030,260.5C 1032.22,312.519 1017.22,358.852 985,399.5C 961.289,426.773 932.122,445.606 897.5,456C 867.016,462.794 839.349,456.794 814.5,438C 795.216,422.711 780.382,403.877 770,381.5C 754.889,346.052 746.555,309.052 745,270.5C 743.181,239.14 743.181,207.807 745,176.5C 746.876,175.391 748.709,174.391 750.5,173.5 Z"/></g>
<g><path style="opacity:0.925" fill="#000000" d="M 290.5,175.5 C 302.814,176.315 309.314,182.982 310,195.5C 310.667,201.833 310.667,208.167 310,214.5C 305.799,218.887 302.466,218.22 300,212.5C 298.175,204.892 296.675,197.225 295.5,189.5C 270.14,192.337 244.806,195.504 219.5,199C 216.768,199.413 214.101,200.08 211.5,201C 210.931,205.933 211.764,210.766 214,215.5C 214.903,216.701 216.069,217.535 217.5,218C 241.825,217.272 265.992,214.772 290,210.5C 294.407,210.07 296.907,212.07 297.5,216.5C 296.394,219.441 294.394,221.608 291.5,223C 264.395,228.111 237.062,230.444 209.5,230C 201.112,218.64 196.945,205.806 197,191.5C 197.833,190.667 198.667,189.833 199.5,189C 230.128,185.55 260.461,181.05 290.5,175.5 Z"/></g>
<g><path style="opacity:0.916" fill="#000000" d="M 702.5,190.5 C 705.474,190.645 707.641,191.978 709,194.5C 710.086,213.686 713.753,232.352 720,250.5C 723.126,258.098 728.126,264.098 735,268.5C 735.743,270.441 735.576,272.274 734.5,274C 727.117,275.782 720.617,274.282 715,269.5C 708.313,258.778 703.979,247.111 702,234.5C 698.916,220.982 697.916,207.315 699,193.5C 699.985,192.186 701.152,191.186 702.5,190.5 Z"/></g>
<g><path style="opacity:0.93" fill="#000000" d="M 327.5,225.5 C 334.175,225.334 340.842,225.5 347.5,226C 351.546,232.841 349.546,236.841 341.5,238C 306.147,243.537 270.814,249.204 235.5,255C 195.043,261.035 154.376,263.702 113.5,263C 107.037,261.883 104.87,258.383 107,252.5C 108.255,250.406 110.088,249.406 112.5,249.5C 118.555,251.004 124.722,251.67 131,251.5C 155.237,250.59 179.403,248.757 203.5,246C 245.165,240.333 286.498,233.5 327.5,225.5 Z"/></g>
<g><path style="opacity:0.912" fill="#000000" d="M 799.5,243.5 C 805.863,243.022 809.363,246.022 810,252.5C 811.221,262.478 811.554,272.478 811,282.5C 811.165,287.841 808.998,291.841 804.5,294.5C 802.568,293.855 801.401,292.521 801,290.5C 798.438,274.853 797.938,259.186 799.5,243.5 Z"/></g>
<g><path style="opacity:0.896" fill="#000000" d="M 870.5,250.5 C 872.792,250.244 874.959,250.577 877,251.5C 878.204,255.716 878.87,260.049 879,264.5C 879.887,276.216 879.554,287.883 878,299.5C 874.847,303.152 871.847,302.819 869,298.5C 866.321,283.215 865.988,267.882 868,252.5C 868.995,251.934 869.828,251.267 870.5,250.5 Z"/></g>
<g><path style="opacity:0.926" fill="#000000" d="M 230.5,277.5 C 236.842,277.334 243.175,277.5 249.5,278C 252,279.167 253.833,281 255,283.5C 255.963,298.577 255.296,313.577 253,328.5C 252.269,330.899 251.102,333.065 249.5,335C 250.767,336.796 250.767,338.629 249.5,340.5C 247.205,342.48 244.539,343.647 241.5,344C 228.653,344.883 215.986,346.883 203.5,350C 179.268,361.221 158.101,376.721 140,396.5C 137.597,403.235 132.93,407.569 126,409.5C 122.633,408.447 120.966,406.114 121,402.5C 118.236,373.386 114.569,344.386 110,315.5C 109.146,311.375 109.48,307.375 111,303.5C 113.048,301.213 115.215,301.046 117.5,303C 119.235,305.192 120.402,307.692 121,310.5C 126.134,334.605 129.634,358.939 131.5,383.5C 134.14,383.046 136.473,381.879 138.5,380C 154.531,363.486 172.864,350.153 193.5,340C 209.12,333.125 225.453,330.292 242.5,331.5C 242.5,317.833 242.5,304.167 242.5,290.5C 229.769,291.39 217.102,292.89 204.5,295C 181.83,299.001 159.164,303.001 136.5,307C 131.473,307.938 126.64,307.438 122,305.5C 121.022,302.331 121.522,299.497 123.5,297C 159.125,289.506 194.791,283.006 230.5,277.5 Z"/></g>
<g><path style="opacity:0.916" fill="#000000" d="M 580.5,310.5 C 583.568,310.547 586.568,311.047 589.5,312C 592.286,320.66 592.786,329.493 591,338.5C 588.218,343.927 583.718,347.093 577.5,348C 559.181,352.23 540.848,356.397 522.5,360.5C 516.517,358.708 515.184,355.208 518.5,350C 520.717,348.725 523.051,347.725 525.5,347C 543.301,343.174 560.968,338.84 578.5,334C 579.456,330.606 579.789,327.106 579.5,323.5C 562.187,327.661 544.854,331.828 527.5,336C 524.167,336.667 520.833,336.667 517.5,336C 513.517,332.592 513.85,329.592 518.5,327C 538.837,319.712 559.504,314.212 580.5,310.5 Z"/></g>
<g><path style="opacity:0.925" fill="#000000" d="M 466.5,331.5 C 474.365,331.366 482.032,332.533 489.5,335C 491.949,336.863 492.949,339.363 492.5,342.5C 490.849,356.978 483.016,365.978 469,369.5C 459.651,368.316 454.484,362.983 453.5,353.5C 454.792,344.231 459.126,336.898 466.5,331.5 Z M 471.5,343.5 C 476.729,344.206 478.229,346.872 476,351.5C 473.499,354.598 470.499,355.931 467,355.5C 466.523,350.782 468.023,346.782 471.5,343.5 Z"/></g>
<g><path style="opacity:0.903" fill="#000000" d="M 825.5,346.5 C 827.527,346.338 829.527,346.505 831.5,347C 837.647,355.939 845.98,358.939 856.5,356C 860.491,353.754 864.657,351.921 869,350.5C 874.023,351.608 875.69,354.608 874,359.5C 864.302,369.133 852.802,371.966 839.5,368C 831.107,365.985 824.773,361.318 820.5,354C 821.33,350.809 822.997,348.309 825.5,346.5 Z"/></g>
<g><path style="opacity:0.919" fill="#000000" d="M 421.5,347.5 C 425.514,347.334 429.514,347.501 433.5,348C 435.706,350.209 436.04,352.709 434.5,355.5C 431.965,357.85 428.965,359.35 425.5,360C 417.79,361.844 410.124,363.844 402.5,366C 399.392,373.067 401.725,375.734 409.5,374C 418.94,370.964 428.44,368.131 438,365.5C 439.261,365.759 440.261,366.426 441,367.5C 442.724,372.731 441.224,376.565 436.5,379C 425.712,383.322 414.545,386.155 403,387.5C 396.464,387.972 392.464,384.972 391,378.5C 388.305,372.26 387.972,365.927 390,359.5C 391.731,357.383 393.898,355.883 396.5,355C 404.906,352.321 413.239,349.821 421.5,347.5 Z"/></g>
<g><path style="opacity:0.924" fill="#000000" d="M 339.5,352.5 C 347.492,353.882 355.492,355.382 363.5,357C 368.833,357.333 374.167,357.667 379.5,358C 386.509,358.707 388.509,362.04 385.5,368C 379.589,369.464 373.589,370.464 367.5,371C 371.243,372.136 374.91,373.47 378.5,375C 382.501,379.044 381.835,382.377 376.5,385C 367.646,385.716 359.646,383.383 352.5,378C 345.294,373.137 339.961,366.804 336.5,359C 336.84,356.489 337.84,354.322 339.5,352.5 Z"/></g>
<g><path style="opacity:0.911" fill="#000000" d="M 559.5,368.5 C 562.561,368.444 564.728,369.778 566,372.5C 567.854,388.768 570.354,404.934 573.5,421C 574.009,427.84 571.176,430.007 565,427.5C 562.573,423.46 560.906,419.126 560,414.5C 557.401,402.239 555.234,389.906 553.5,377.5C 553.96,373.39 555.96,370.39 559.5,368.5 Z"/></g>
<g><path style="opacity:0.919" fill="#000000" d="M 492.5,376.5 C 495.794,376.259 498.794,377.092 501.5,379C 513.799,391.626 524.965,405.126 535,419.5C 556.333,454.167 577.667,488.833 599,523.5C 606.01,535.517 612.51,547.851 618.5,560.5C 619.723,561.614 621.056,561.781 622.5,561C 651.642,549.096 680.309,536.096 708.5,522C 720.996,515.918 733.996,511.252 747.5,508C 753.016,506.899 758.183,507.733 763,510.5C 765.497,514.351 764.663,517.184 760.5,519C 747.82,519.894 735.82,523.227 724.5,529C 695.833,542.667 667.167,556.333 638.5,570C 630.559,573.984 622.226,576.317 613.5,577C 610.877,573.588 608.377,570.088 606,566.5C 595.76,546.349 584.76,526.682 573,507.5C 556.937,482.432 541.27,457.098 526,431.5C 514.872,414.925 502.539,399.259 489,384.5C 488.279,380.946 489.446,378.28 492.5,376.5 Z"/></g>
<g><path style="opacity:0.926" fill="#000000" d="M 977.5,432.5 C 982.543,433.208 984.709,436.208 984,441.5C 988.051,540.631 990.885,639.798 992.5,739C 992.333,747.167 992.167,755.333 992,763.5C 989.51,764.743 987.01,765.91 984.5,767C 985.87,769.833 985.536,772.5 983.5,775C 981.043,776.562 978.376,777.562 975.5,778C 949.124,776.863 922.791,774.863 896.5,772C 862.5,771.667 828.5,771.333 794.5,771C 779.711,772.205 770.545,765.705 767,751.5C 765.958,745.387 765.458,739.221 765.5,733C 769.979,648.46 775.146,563.96 781,479.5C 781.263,474.983 782.263,470.649 784,466.5C 785.126,465.056 786.626,464.39 788.5,464.5C 790.512,464.84 792.512,465.173 794.5,465.5C 789.832,548.193 784.665,630.86 779,713.5C 778.333,722.5 778.333,731.5 779,740.5C 779.315,746.618 781.482,751.951 785.5,756.5C 823.832,757.398 862.165,758.231 900.5,759C 922.584,760.308 944.584,762.475 966.5,765.5C 969.774,765.696 972.441,764.529 974.5,762C 976.473,761.505 978.473,761.338 980.5,761.5C 978,660.668 975,559.835 971.5,459C 971.575,451.802 972.075,444.636 973,437.5C 973.743,435.068 975.243,433.401 977.5,432.5 Z"/></g>
<g><path style="opacity:0.922" fill="#000000" d="M 326.5,434.5 C 341.19,434.312 355.857,434.812 370.5,436C 379.852,437.991 382.018,443.158 377,451.5C 360.532,465.634 345.032,480.801 330.5,497C 328.167,498.667 325.833,500.333 323.5,502C 317.924,503.472 313.091,502.305 309,498.5C 306.712,478.227 310.046,458.894 319,440.5C 321.134,437.847 323.634,435.847 326.5,434.5 Z M 334.5,446.5 C 342.84,446.334 351.173,446.5 359.5,447C 345.564,459.931 332.731,473.764 321,488.5C 320.986,474.733 323.486,461.4 328.5,448.5C 330.631,447.831 332.631,447.165 334.5,446.5 Z"/></g>
<g><path style="opacity:0.929" fill="#000000" d="M 478.5,464.5 C 500.259,468.754 514.759,481.421 522,502.5C 528.474,532.399 527.474,562.066 519,591.5C 516.657,599.992 511.99,601.659 505,596.5C 506.341,582.234 504.007,568.568 498,555.5C 497.097,554.299 495.931,553.465 494.5,553C 484.853,550.923 475.52,547.923 466.5,544C 462.212,541.708 459.378,538.208 458,533.5C 456.47,525.564 456.137,517.564 457,509.5C 458.564,497.68 460.897,486.013 464,474.5C 466.915,468.299 471.748,464.966 478.5,464.5 Z M 478.5,476.5 C 491.8,479.965 501.3,487.965 507,500.5C 513.67,516.885 515.503,533.552 512.5,550.5C 508.931,546.762 504.931,543.596 500.5,541C 491.952,538.959 483.618,536.292 475.5,533C 472.527,531.235 470.36,528.735 469,525.5C 469.127,510.609 471.127,495.942 475,481.5C 475.697,479.416 476.864,477.749 478.5,476.5 Z"/></g>
<g><path style="opacity:0.922" fill="#000000" d="M 1100.5,537.5 C 1100.5,538.167 1100.5,538.833 1100.5,539.5C 1099.25,543.343 1097.41,547.01 1095,550.5C 1081.52,566.804 1068.52,583.471 1056,600.5C 1051.46,606.329 1046.8,606.663 1042,601.5C 1041.37,599.365 1041.7,597.365 1043,595.5C 1056.4,576.761 1070.57,558.594 1085.5,541C 1064.39,537.204 1043.39,532.871 1022.5,528C 1016.98,526.794 1012.98,523.794 1010.5,519C 1013.33,510.838 1017.99,509.505 1024.5,515C 1030.41,516.978 1036.41,518.645 1042.5,520C 1059.21,522.784 1075.87,525.784 1092.5,529C 1097.16,530.153 1099.83,532.986 1100.5,537.5 Z"/></g>
<g><path style="opacity:0.921" fill="#000000" d="M 562.5,528.5 C 567.366,527.679 570.199,529.679 571,534.5C 577.107,578.585 583.774,622.585 591,666.5C 591.667,670.5 591.667,674.5 591,678.5C 587.738,681.077 584.405,681.077 581,678.5C 579.046,674.019 577.713,669.352 577,664.5C 570.773,624.914 565.107,585.247 560,545.5C 559.333,540.833 559.333,536.167 560,531.5C 561.045,530.627 561.878,529.627 562.5,528.5 Z"/></g>
<g><path style="opacity:0.929" fill="#000000" d="M 1049.5,614.5 C 1058.92,614.751 1063.25,619.584 1062.5,629C 1062.54,641.269 1057.21,650.269 1046.5,656C 1032.34,657.169 1026.51,650.669 1029,636.5C 1030.76,628.409 1035.59,623.242 1043.5,621C 1045.71,618.963 1047.71,616.797 1049.5,614.5 Z M 1044.5,634.5 C 1045.83,634.5 1047.17,634.5 1048.5,634.5C 1048.1,638.737 1045.94,641.737 1042,643.5C 1041.13,642.892 1040.63,642.059 1040.5,641C 1041.25,638.429 1042.58,636.262 1044.5,634.5 Z"/></g>
<g><path style="opacity:0.924" fill="#000000" d="M 509.5,670.5 C 512.505,670.253 515.005,671.253 517,673.5C 520.743,681.468 523.41,689.801 525,698.5C 549.421,812.271 575.754,925.604 604,1038.5C 606.864,1049.01 608.197,1059.67 608,1070.5C 605.757,1072.28 603.257,1072.78 600.5,1072C 597.998,1070.66 595.998,1068.83 594.5,1066.5C 586.552,1075.37 576.885,1077.87 565.5,1074C 560.076,1071.98 558.242,1068.15 560,1062.5C 562.813,1058.56 566.313,1057.73 570.5,1060C 572.394,1061.4 574.394,1062.57 576.5,1063.5C 579.957,1061.94 583.29,1060.1 586.5,1058C 589.226,1057.82 591.893,1057.32 594.5,1056.5C 572.882,969.693 552.048,882.693 532,795.5C 523.65,755.078 515.316,714.745 507,674.5C 507.662,673.016 508.496,671.683 509.5,670.5 Z"/></g>
<g><path style="opacity:0.925" fill="#000000" d="M 455.5,678.5 C 458.93,678.107 462.096,678.773 465,680.5C 471.486,714.931 478.486,749.265 486,783.5C 506.982,872.761 527.649,962.095 548,1051.5C 549.49,1058.11 550.656,1064.78 551.5,1071.5C 551.387,1073.64 550.72,1075.47 549.5,1077C 546.084,1077.89 542.917,1077.39 540,1075.5C 516.195,974.613 492.862,873.613 470,772.5C 464.41,745.885 459.077,719.218 454,692.5C 452.966,687.543 453.466,682.876 455.5,678.5 Z"/></g>
<g><path style="opacity:0.926" fill="#000000" d="M 154.5,749.5 C 160.674,748.173 162.841,750.506 161,756.5C 142.411,846.109 124.078,935.776 106,1025.5C 100.715,1052.09 95.8819,1078.76 91.5,1105.5C 89.556,1106.19 87.556,1106.69 85.5,1107C 69.4702,1107.85 53.4702,1107.51 37.5,1106C 32.5613,1105.14 31.5613,1102.8 34.5,1099C 36.087,1098.14 37.7536,1097.47 39.5,1097C 52.4571,1095.31 65.4571,1094.14 78.5,1093.5C 100.222,980.388 124.056,867.721 150,755.5C 150.599,752.746 152.099,750.746 154.5,749.5 Z"/></g>
<g><path style="opacity:0.922" fill="#000000" d="M 812.5,807.5 C 817.573,806.53 820.906,808.363 822.5,813C 821.102,817.744 820.102,822.577 819.5,827.5C 822.261,876.43 823.928,925.43 824.5,974.5C 824.575,983.876 824.075,993.209 823,1002.5C 820.985,1007.52 817.818,1011.69 813.5,1015C 791.75,1028.41 771.417,1043.75 752.5,1061C 747.203,1062.52 743.869,1060.69 742.5,1055.5C 743.555,1051.72 745.388,1048.39 748,1045.5C 765.659,1030.84 784.159,1017.34 803.5,1005C 806.79,1002.39 809.29,999.219 811,995.5C 811.391,940.971 810.225,886.471 807.5,832C 807.667,826.5 807.833,821 808,815.5C 808.246,811.995 809.746,809.329 812.5,807.5 Z"/></g>
<g><path style="opacity:0.924" fill="#000000" d="M 933.5,814.5 C 936.836,814.467 940.003,815.134 943,816.5C 944.617,866.811 945.617,917.144 946,967.5C 945.712,979.426 950.545,988.593 960.5,995C 978.117,1003.2 995.784,1011.2 1013.5,1019C 1016.2,1022.27 1015.86,1025.27 1012.5,1028C 1006.57,1028.69 1000.9,1027.69 995.5,1025C 978.209,1019.24 961.876,1011.58 946.5,1002C 939.32,995.808 935.153,987.975 934,978.5C 933.028,971.865 932.361,965.199 932,958.5C 931.246,910.422 931.746,862.422 933.5,814.5 Z"/></g>
</svg>
