<?xml version="1.0" encoding="UTF-8"?>
<!DOCTYPE svg PUBLIC "-//W3C//DTD SVG 1.1//EN" "http://www.w3.org/Graphics/SVG/1.1/DTD/svg11.dtd">
<svg xmlns="http://www.w3.org/2000/svg" version="1.1" width="1092px" height="1172px" style="shape-rendering:geometricPrecision; text-rendering:geometricPrecision; image-rendering:optimizeQuality; fill-rule:evenodd; clip-rule:evenodd" xmlns:xlink="http://www.w3.org/1999/xlink">
<g><path style="opacity:0.93" fill="#111111" d="M 879.5,-0.5 C 885.5,-0.5 891.5,-0.5 897.5,-0.5C 913.654,0.328289 926.487,7.32829 936,20.5C 936.803,24.5209 937.969,28.3542 939.5,32C 953.398,33.9974 967.398,34.9974 981.5,35C 1034.33,40.4855 1058.83,69.6522 1055,122.5C 1051.3,134.208 1044.47,143.708 1034.5,151C 1050.3,163.129 1064.46,176.963 1077,192.5C 1086.53,208.633 1091.36,225.967 1091.5,244.5C 1091.5,247.167 1091.5,249.833 1091.5,252.5C 1092.65,287.676 1076.65,311.509 1043.5,324C 1034.17,327.634 1024.5,329.134 1014.5,328.5C 1015.98,355.069 1004.65,373.569 980.5,384C 954.242,395.933 926.909,399.6 898.5,395C 886.681,392.257 875.681,387.59 865.5,381C 861.421,377.213 856.921,374.046 852,371.5C 826.35,382.881 800.516,383.048 774.5,372C 766.788,367.809 759.788,362.643 753.5,356.5C 745.141,346.942 737.141,337.109 729.5,327C 695.463,334.059 669.963,322.559 653,292.5C 647.84,277.242 646.173,261.575 648,245.5C 648.956,229.38 652.456,213.88 658.5,199C 658.355,198.228 658.022,197.561 657.5,197C 633.94,186.716 624.44,168.883 629,143.5C 632.017,128.472 638.017,114.805 647,102.5C 658.029,90.9083 671.363,86.9083 687,90.5C 686.989,45.5237 708.822,18.0237 752.5,8C 760.5,7.33333 768.5,7.33333 776.5,8C 781.021,8.72927 785.354,10.0626 789.5,12C 792.788,14.3008 796.288,16.1342 800,17.5C 826.322,10.1247 852.822,4.12474 879.5,-0.5 Z M 875.5,12.5 C 883.84,12.3336 892.173,12.5003 900.5,13C 911.401,14.0242 919.567,19.1908 925,28.5C 925.333,32.8333 925.667,37.1667 926,41.5C 926.903,42.7014 928.069,43.5348 929.5,44C 944.776,45.3199 960.11,46.3199 975.5,47C 988.625,48.1147 1001.29,51.1147 1013.5,56C 1021.43,59.5446 1027.6,65.0446 1032,72.5C 1040.54,86.3429 1044.21,101.343 1043,117.5C 1039.85,128.987 1033.01,137.487 1022.5,143C 1017.17,148.333 1017.17,153.667 1022.5,159C 1042.38,171.879 1058.55,188.379 1071,208.5C 1080.96,232.494 1081.96,256.827 1074,281.5C 1064.23,299.818 1049.07,310.985 1028.5,315C 1021.17,315.333 1013.83,315.667 1006.5,316C 1004.4,318.042 1003.23,320.542 1003,323.5C 1002.03,331.895 1000.7,340.228 999,348.5C 997.444,353.28 995.111,357.613 992,361.5C 965.299,379.711 935.799,386.878 903.5,383C 887.401,379.536 873.568,372.036 862,360.5C 860.956,358.285 860.29,355.952 860,353.5C 853.326,349.002 848.992,350.669 847,358.5C 841.682,362.943 835.515,365.443 828.5,366C 800.942,370.744 777.442,363.244 758,343.5C 750.108,332.606 742.608,321.439 735.5,310C 726.688,312.307 717.855,314.807 709,317.5C 676.029,311.693 659.529,292.026 659.5,258.5C 660.018,246.377 661.518,234.377 664,222.5C 665.397,213.702 669.397,206.369 676,200.5C 679.734,196.376 679.234,192.876 674.5,190C 662.865,187.103 653.031,181.27 645,172.5C 642.249,168.101 640.749,163.268 640.5,158C 641.589,142.403 646.089,127.903 654,114.5C 659.572,107.966 666.405,103.299 674.5,100.5C 681.271,102.719 687.938,105.219 694.5,108C 699.891,108.973 702.891,106.639 703.5,101C 695.021,66.636 706.354,41.3027 737.5,25C 752.171,18.1378 767.171,17.1378 782.5,22C 789.333,26.3172 796.333,30.1505 803.5,33.5C 804.5,33.3333 805.5,33.1667 806.5,33C 812.043,28.4779 818.376,25.4779 825.5,24C 842.166,19.5706 858.833,15.7373 875.5,12.5 Z"/></g>
<g><path style="opacity:0.925" fill="#111111" d="M 173.5,169.5 C 221.276,167.154 264.61,179.654 303.5,207C 320.903,222.736 334.903,241.069 345.5,262C 343.802,266.837 340.468,269.17 335.5,269C 325.796,251.62 314.129,235.62 300.5,221C 266.365,194.9 227.698,182.066 184.5,182.5C 165.702,182.489 147.035,183.989 128.5,187C 113.09,190.803 98.0902,195.803 83.5,202C 79.9031,203.277 76.2364,203.61 72.5,203C 70.7266,198.533 72.0599,195.2 76.5,193C 107.325,178.376 139.658,170.543 173.5,169.5 Z"/></g>
<g><path style="opacity:0.926" fill="#111111" d="M 559.5,217.5 C 570.035,216.052 579.701,218.218 588.5,224C 595.858,236.58 592.524,245.246 578.5,250C 566.745,253.347 559.912,249.18 558,237.5C 557.644,230.737 558.144,224.071 559.5,217.5 Z M 569.5,229.5 C 573.064,229.688 576.397,230.688 579.5,232.5C 580.583,233.365 580.749,234.365 580,235.5C 571.467,242.324 567.967,240.324 569.5,229.5 Z"/></g>
<g><path style="opacity:0.932" fill="#111111" d="M 92.5,226.5 C 116.864,225.806 140.198,230.306 162.5,240C 201.344,260.255 240.344,280.255 279.5,300C 298.167,308 316.833,316 335.5,324C 339.01,327.048 339.343,330.381 336.5,334C 333.833,334.667 331.167,334.667 328.5,334C 310.046,327.773 292.046,320.439 274.5,312C 235.656,291.745 196.656,271.745 157.5,252C 113.266,232.454 70.9328,235.788 30.5,262C 26.2574,264.653 24.4241,268.486 25,273.5C 19.5615,276.293 14.2281,275.959 9,272.5C 8.32542,266.475 10.4921,261.642 15.5,258C 38.4813,240.734 64.148,230.234 92.5,226.5 Z"/></g>
<g><path style="opacity:0.926" fill="#111111" d="M 508.5,244.5 C 518.953,243.808 526.453,248.141 531,257.5C 531.315,268.336 526.148,275.169 515.5,278C 501.528,280.287 495.028,274.454 496,260.5C 498.039,253.382 502.206,248.049 508.5,244.5 Z M 513.5,257.5 C 515.937,257.886 517.937,259.053 519.5,261C 516.631,264.604 512.965,266.27 508.5,266C 507.326,261.643 508.992,258.81 513.5,257.5 Z"/></g>
<g><path style="opacity:0.93" fill="#111111" d="M 441.5,258.5 C 453.461,259.239 461.628,265.239 466,276.5C 466.912,280.452 466.245,284.119 464,287.5C 460.749,291.422 456.916,294.588 452.5,297C 437.248,298.078 430.414,290.912 432,275.5C 433.662,268.828 436.828,263.162 441.5,258.5 Z M 445.5,274.5 C 451.496,273.333 453.996,275.666 453,281.5C 448.141,287.375 444.641,286.708 442.5,279.5C 443.26,277.64 444.26,275.973 445.5,274.5 Z"/></g>
<g><path style="opacity:0.929" fill="#111111" d="M 80.5,261.5 C 89.1204,262.74 91.2871,267.074 87,274.5C 83.5912,327.562 90.5912,379.229 108,429.5C 118.175,458.376 134.675,482.876 157.5,503C 178.901,518.481 202.567,523.481 228.5,518C 257.011,511.999 281.511,498.832 302,478.5C 311.942,465.952 319.276,451.952 324,436.5C 330.068,408.762 334.401,380.762 337,352.5C 338.466,350.675 340.299,350.175 342.5,351C 344.96,352.458 347.127,354.291 349,356.5C 346.847,378.572 343.847,400.572 340,422.5C 333.996,464.716 312.163,495.55 274.5,515C 246.18,530.164 216.18,535.164 184.5,530C 164.242,524.459 147.075,513.959 133,498.5C 108.723,468.939 92.723,435.273 85,397.5C 76.262,356.572 72.9287,315.238 75,273.5C 75.5944,268.863 77.4278,264.863 80.5,261.5 Z"/></g>
<g><path style="opacity:0.923" fill="#111111" d="M 28.5,288.5 C 32.8874,288.533 35.054,290.866 35,295.5C 33.8881,328.178 38.8881,359.844 50,390.5C 53.1115,398.56 57.6115,405.727 63.5,412C 67.7705,412.903 71.9372,414.07 76,415.5C 77.5075,421.324 75.3408,424.824 69.5,426C 62.5063,426.96 56.673,424.793 52,419.5C 43.8912,408.616 37.8912,396.616 34,383.5C 25.4522,353.355 22.4522,322.689 25,291.5C 26.1451,290.364 27.3117,289.364 28.5,288.5 Z"/></g>
<g><path style="opacity:0.925" fill="#111111" d="M 183.5,336.5 C 185.936,336.317 188.103,336.984 190,338.5C 193.197,353.331 194.53,368.331 194,383.5C 191.138,385.532 188.304,385.199 185.5,382.5C 184.208,380.333 183.375,378 183,375.5C 181.001,362.287 181.168,349.287 183.5,336.5 Z"/></g>
<g><path style="opacity:0.91" fill="#111111" d="M 267.5,343.5 C 269.5,343.5 271.5,343.5 273.5,343.5C 274.961,358.531 274.794,373.531 273,388.5C 272.481,389.516 271.647,390.182 270.5,390.5C 266.362,388.863 263.862,385.863 263,381.5C 262.139,369.79 262.473,358.123 264,346.5C 265.145,345.364 266.312,344.364 267.5,343.5 Z"/></g>
<g><path style="opacity:0.916" fill="#111111" d="M 175.5,437.5 C 180.569,438.034 184.902,440.201 188.5,444C 193.178,445.802 198.012,446.969 203,447.5C 207.905,446.819 212.739,445.819 217.5,444.5C 220.545,444.396 222.212,445.896 222.5,449C 221.285,454.285 217.952,457.285 212.5,458C 200.95,459.75 189.95,458.083 179.5,453C 173.727,448.866 172.394,443.7 175.5,437.5 Z"/></g>
<g><path style="opacity:0.918" fill="#111111" d="M 360.5,447.5 C 374.189,451.535 379.022,460.535 375,474.5C 368.821,485.176 359.988,488.343 348.5,484C 342.448,477.626 341.281,470.459 345,462.5C 346.413,459.339 348.08,456.339 350,453.5C 353.351,451.079 356.851,449.079 360.5,447.5 Z M 357.5,463.5 C 362.355,462.964 364.521,464.964 364,469.5C 362.235,471.774 360.068,473.441 357.5,474.5C 355.734,474.566 354.734,473.732 354.5,472C 355.41,469.101 356.41,466.267 357.5,463.5 Z"/></g>
<g><path style="opacity:0.911" fill="#111111" d="M 374.5,481.5 C 378.331,481.249 381.664,482.416 384.5,485C 403.788,502.617 421.288,521.784 437,542.5C 439.633,545.668 439.967,549.002 438,552.5C 433.926,556.119 429.759,559.619 425.5,563C 401.819,578.506 378.486,594.506 355.5,611C 352.068,613.434 348.401,614.268 344.5,613.5C 342.062,611.344 341.895,609.011 344,606.5C 346.5,604 349,601.5 351.5,599C 376.111,582.055 400.445,564.722 424.5,547C 407.583,527.36 390.083,508.193 372,489.5C 372.107,486.676 372.94,484.009 374.5,481.5 Z"/></g>
<g><path style="opacity:0.934" fill="#111111" d="M 129.5,526.5 C 132.833,526.5 136.167,526.5 139.5,526.5C 139.208,572.843 139.708,619.176 141,665.5C 144.243,745.199 148.076,824.866 152.5,904.5C 164.838,904.667 177.171,904.5 189.5,904C 216.495,901.601 243.495,899.267 270.5,897C 291.151,895.842 311.817,895.342 332.5,895.5C 333.006,899.007 332.34,902.174 330.5,905C 275.509,909.378 220.509,913.545 165.5,917.5C 159.5,917 153.5,916.5 147.5,916C 145.152,915.654 143.319,914.487 142,912.5C 133.287,801.379 128.453,690.045 127.5,578.5C 127.667,562.833 127.833,547.167 128,531.5C 128.352,529.753 128.852,528.086 129.5,526.5 Z"/></g>
<g><path style="opacity:0.937" fill="#111111" d="M 309.5,526.5 C 311.288,526.215 312.955,526.548 314.5,527.5C 321.037,612.419 326.87,697.419 332,782.5C 334.054,813.807 334.721,845.14 334,876.5C 332.741,879.217 330.574,880.55 327.5,880.5C 325.626,880.61 324.126,879.944 323,878.5C 321.884,843.16 320.55,807.827 319,772.5C 314.602,707.524 310.602,642.524 307,577.5C 305.945,562.176 305.611,546.842 306,531.5C 306.257,529.093 307.424,527.427 309.5,526.5 Z"/></g>
<g><path style="opacity:0.923" fill="#111111" d="M 104.5,647.5 C 107.518,647.335 110.518,647.502 113.5,648C 116.087,649.525 116.92,651.692 116,654.5C 110.645,657.678 105.645,661.345 101,665.5C 83.0415,688.395 68.3748,713.395 57,740.5C 49.1385,758.418 41.4718,776.418 34,794.5C 31.3333,797.167 28.6667,797.167 26,794.5C 25.4279,785.446 27.0946,776.779 31,768.5C 45.2656,730.959 63.9323,695.959 87,663.5C 91.8032,656.856 97.6365,651.522 104.5,647.5 Z"/></g>
<g><path style="opacity:0.923" fill="#111111" d="M -0.5,827.5 C -0.5,823.5 -0.5,819.5 -0.5,815.5C 2.29203,810.595 5.12536,805.595 8,800.5C 10.0639,799.409 12.2305,799.242 14.5,800C 22.5278,805.52 27.5278,813.02 29.5,822.5C 27.1967,836.007 19.53,841.174 6.5,838C 3.26226,835.002 0.928927,831.502 -0.5,827.5 Z M 12.5,815.5 C 13.4959,815.414 14.3292,815.748 15,816.5C 17.3941,820.672 16.8941,824.339 13.5,827.5C 11.1965,823.722 10.8632,819.722 12.5,815.5 Z"/></g>
<g><path style="opacity:0.935" fill="#111111" d="M 199.5,932.5 C 201.857,932.337 204.19,932.503 206.5,933C 207.894,933.956 208.561,935.289 208.5,937C 206.946,942.856 206.28,948.856 206.5,955C 208.916,1001.15 211.083,1047.32 213,1093.5C 213.667,1105.17 213.667,1116.83 213,1128.5C 212.654,1130.85 211.487,1132.68 209.5,1134C 189.217,1145.98 168.217,1156.64 146.5,1166C 141.473,1167.31 139.14,1165.31 139.5,1160C 139.439,1157.74 140.106,1155.74 141.5,1154C 160.348,1144.74 179.348,1135.74 198.5,1127C 199.126,1126.25 199.626,1125.42 200,1124.5C 200.667,1110.17 200.667,1095.83 200,1081.5C 197.39,1032.86 196.057,984.193 196,935.5C 197.145,934.364 198.312,933.364 199.5,932.5 Z"/></g>
<g><path style="opacity:0.928" fill="#111111" d="M 387.5,1171.5 C 384.5,1171.5 381.5,1171.5 378.5,1171.5C 350.029,1161.44 322.029,1149.94 294.5,1137C 289.976,1133.14 286.142,1128.64 283,1123.5C 282.667,1066.17 282.333,1008.83 282,951.5C 278.325,944.919 278.825,938.753 283.5,933C 286.669,932.022 289.503,932.522 292,934.5C 292.333,941.167 292.667,947.833 293,954.5C 293.745,1010.18 294.745,1065.85 296,1121.5C 301.923,1126.22 308.423,1130.05 315.5,1133C 340.149,1144.1 365.316,1153.6 391,1161.5C 392.244,1165.81 391.077,1169.14 387.5,1171.5 Z"/></g>
</svg>
